<?xml version="1.0" standalone="no"?>
<!DOCTYPE svg PUBLIC "-//W3C//DTD SVG 20010904//EN"
 "http://www.w3.org/TR/2001/REC-SVG-20010904/DTD/svg10.dtd">
<svg version="1.0" xmlns="http://www.w3.org/2000/svg"
 width="400.000000pt" height="290.000000pt" viewBox="0 0 400.000000 290.000000"
 preserveAspectRatio="xMidYMid meet">

<g transform="translate(0.000000,290.000000) scale(0.100000,-0.100000)"
fill="#000000" stroke="none">
<path d="M3452 2620 c-93 -5 -115 -9 -131 -25 -10 -11 -222 -263 -472 -560
-249 -297 -496 -591 -548 -654 -68 -80 -97 -108 -98 -95 -3 23 -73 1205 -73
1234 0 19 -5 19 -77 14 -108 -7 -144 -14 -138 -24 3 -4 -8 -11 -25 -15 -28 -6
-30 -9 -30 -53 0 -26 25 -423 54 -882 30 -459 53 -836 51 -838 -1 -2 -346 375
-765 837 l-761 841 -82 0 -82 0 21 -327 c12 -181 43 -663 70 -1071 l49 -744
100 7 c55 4 101 8 103 10 1 1 -23 388 -53 861 -31 472 -54 863 -53 869 2 6
120 -118 263 -275 143 -157 482 -529 754 -828 271 -298 497 -539 502 -536 5 3
12 -1 15 -9 4 -12 24 -14 107 -10 56 3 103 6 104 7 1 1 -7 139 -17 306 -11
168 -20 319 -20 337 0 27 29 65 191 255 105 123 193 224 194 226 1 1 206 -234
454 -523 l452 -526 112 7 c62 4 113 8 115 9 2 2 -224 265 -501 585 l-505 583
141 171 c433 524 672 813 685 829 8 9 13 16 11 15 -2 -1 -55 -4 -117 -8z"/>
</g>
</svg>
